<svg width="100" height="17" fill="none" xmlns="http://www.w3.org/2000/svg"><path d="M.264 16V1.455H3.34v6.001h6.243V1.455h3.069V16h-3.07V9.991H3.34V16H.264zm19.794.213c-1.103 0-2.057-.234-2.862-.703a4.81 4.81 0 01-1.854-1.974c-.435-.848-.653-1.83-.653-2.948 0-1.127.218-2.112.653-2.954a4.754 4.754 0 011.854-1.975c.805-.473 1.759-.71 2.862-.71 1.104 0 2.055.237 2.855.71a4.74 4.74 0 011.861 1.975c.436.842.654 1.827.654 2.954 0 1.118-.218 2.1-.654 2.948a4.797 4.797 0 01-1.86 1.974c-.8.469-1.753.703-2.856.703zm.014-2.344c.502 0 .921-.142 1.258-.426.336-.289.589-.682.76-1.179.175-.497.262-1.063.262-1.697 0-.635-.087-1.2-.262-1.698-.171-.497-.424-.89-.76-1.179-.337-.288-.756-.433-1.258-.433-.506 0-.932.145-1.278.433-.34.29-.599.682-.774 1.18-.17.496-.256 1.062-.256 1.697 0 .634.085 1.2.256 1.697.175.497.433.89.774 1.18.346.283.772.425 1.278.425zm13.125-8.778v2.273h-6.57V5.09h6.57zM28.12 2.477h3.026v10.17c0 .28.043.498.128.654a.704.704 0 00.355.32c.156.061.336.092.54.092.142 0 .284-.012.426-.035.142-.029.25-.05.326-.064l.476 2.251a8.515 8.515 0 01-.639.163 5.124 5.124 0 01-1.001.121c-.73.029-1.369-.069-1.918-.291a2.676 2.676 0 01-1.271-1.037c-.303-.469-.452-1.06-.448-1.775V2.476zm19.94 4.07h-3.11a3.044 3.044 0 00-.349-1.073 2.727 2.727 0 00-.675-.81 2.968 2.968 0 00-.951-.51 3.64 3.64 0 00-1.158-.178c-.753 0-1.409.187-1.967.56-.559.37-.992.91-1.3 1.62-.308.706-.462 1.563-.462 2.571 0 1.037.154 1.908.462 2.614.313.705.748 1.238 1.307 1.598.558.36 1.205.54 1.939.54.412 0 .793-.055 1.143-.164a3 3 0 00.945-.476c.274-.213.502-.47.682-.774.184-.303.312-.648.383-1.037l3.11.015a5.806 5.806 0 01-1.89 3.587 6.051 6.051 0 01-1.916 1.15c-.739.28-1.574.419-2.507.419-1.297 0-2.457-.294-3.48-.88-1.018-.588-1.823-1.438-2.415-2.55-.587-1.113-.88-2.46-.88-4.042 0-1.586.298-2.935.894-4.048.597-1.113 1.407-1.96 2.43-2.543 1.022-.587 2.173-.88 3.451-.88a7.46 7.46 0 012.344.355 5.943 5.943 0 011.925 1.037 5.333 5.333 0 011.363 1.655c.355.653.582 1.401.682 2.244zm7.077 9.666c-1.103 0-2.057-.234-2.862-.703a4.811 4.811 0 01-1.854-1.974c-.435-.848-.653-1.83-.653-2.948 0-1.127.218-2.112.653-2.954a4.755 4.755 0 011.854-1.975c.805-.473 1.76-.71 2.862-.71 1.104 0 2.055.237 2.855.71a4.741 4.741 0 011.861 1.975c.436.842.654 1.827.654 2.954 0 1.118-.218 2.1-.654 2.948a4.797 4.797 0 01-1.86 1.974c-.8.469-1.752.703-2.856.703zm.015-2.344c.502 0 .92-.142 1.257-.426.336-.289.59-.682.76-1.179.175-.497.262-1.063.262-1.697 0-.635-.087-1.2-.262-1.698-.17-.497-.424-.89-.76-1.179-.337-.288-.755-.433-1.257-.433-.507 0-.933.145-1.279.433-.34.29-.599.682-.774 1.18-.17.496-.256 1.062-.256 1.697 0 .634.086 1.2.256 1.697.175.497.433.89.774 1.18.346.283.772.425 1.279.425zM68.34 5.091v2.273h-6.733V5.09h6.733zM63.148 16V4.303c0-.791.154-1.447.461-1.968.313-.52.739-.911 1.279-1.172.54-.26 1.153-.39 1.84-.39.463 0 .887.035 1.27.106.389.071.678.135.867.192l-.54 2.273a3.783 3.783 0 00-.44-.107 2.746 2.746 0 00-.526-.05c-.445 0-.755.105-.93.313-.175.204-.263.49-.263.86V16h-3.018zM76.054 5.09v2.274h-6.733V5.09h6.733zM70.863 16V4.303c0-.791.153-1.447.461-1.968.313-.52.739-.911 1.279-1.172.54-.26 1.153-.39 1.84-.39.463 0 .887.035 1.27.106.389.071.678.135.867.192l-.54 2.273a3.776 3.776 0 00-.44-.107 2.748 2.748 0 00-.526-.05c-.445 0-.755.105-.93.313-.175.204-.263.49-.263.86V16h-3.018zm11.62.213c-1.121 0-2.087-.227-2.897-.682a4.669 4.669 0 01-1.86-1.946c-.436-.843-.654-1.84-.654-2.99 0-1.122.218-2.107.653-2.954a4.83 4.83 0 011.84-1.982c.795-.473 1.728-.71 2.798-.71.72 0 1.39.116 2.01.348.625.227 1.17.57 1.633 1.03.47.459.834 1.037 1.094 1.733.26.69.39 1.5.39 2.429v.83h-9.21V9.446h6.363c0-.436-.095-.822-.284-1.158a2.035 2.035 0 00-.789-.788 2.248 2.248 0 00-1.157-.292c-.46 0-.867.107-1.222.32-.35.208-.625.49-.824.845-.199.35-.3.741-.305 1.172v1.783c0 .54.1 1.006.298 1.399.204.393.49.696.86.909.369.213.807.32 1.313.32.337 0 .644-.048.924-.143.279-.094.518-.236.717-.426.199-.189.35-.421.455-.696l2.798.185a3.821 3.821 0 01-.874 1.761c-.435.498-.999.886-1.69 1.165-.687.275-1.48.412-2.38.412zm11.954 0c-1.122 0-2.088-.227-2.898-.682a4.668 4.668 0 01-1.86-1.946c-.436-.843-.654-1.84-.654-2.99 0-1.122.218-2.107.653-2.954a4.83 4.83 0 011.84-1.982c.795-.473 1.728-.71 2.798-.71.72 0 1.39.116 2.01.348.625.227 1.17.57 1.634 1.03.468.459.833 1.037 1.093 1.733.26.69.39 1.5.39 2.429v.83h-9.21V9.446h6.363c0-.436-.095-.822-.284-1.158a2.035 2.035 0 00-.789-.788 2.248 2.248 0 00-1.157-.292c-.46 0-.867.107-1.222.32-.35.208-.625.49-.824.845-.199.35-.3.741-.305 1.172v1.783c0 .54.1 1.006.298 1.399.204.393.49.696.86.909.369.213.807.32 1.314.32.336 0 .643-.048.923-.143.28-.094.518-.236.717-.426.199-.189.35-.421.455-.696l2.798.185a3.822 3.822 0 01-.874 1.761c-.435.498-.999.886-1.69 1.165-.687.275-1.48.412-2.38.412z" fill="#000"/></svg>